<svg width="17" height="17" viewBox="0 0 17 17" fill="none" xmlns="http://www.w3.org/2000/svg">
<g clip-path="url(#clip0)">
<path d="M4.78125 4.25C4.64035 4.25 4.50523 4.30597 4.4056 4.4056C4.30597 4.50523 4.25 4.64035 4.25 4.78125V12.2188C4.25 12.5163 4.48375 12.75 4.78125 12.75H12.2188C12.3596 12.75 12.4948 12.694 12.5944 12.5944C12.694 12.4948 12.75 12.3596 12.75 12.2188V4.78125C12.75 4.64035 12.694 4.50523 12.5944 4.4056C12.4948 4.30597 12.3596 4.25 12.2188 4.25H4.78125ZM2.125 4.78125C2.125 4.07677 2.40485 3.40114 2.903 2.903C3.40114 2.40485 4.07677 2.125 4.78125 2.125H12.2188C12.9232 2.125 13.5989 2.40485 14.097 2.903C14.5951 3.40114 14.875 4.07677 14.875 4.78125V12.2188C14.875 12.9232 14.5951 13.5989 14.097 14.097C13.5989 14.5951 12.9232 14.875 12.2188 14.875H4.78125C4.07677 14.875 3.40114 14.5951 2.903 14.097C2.40485 13.5989 2.125 12.9232 2.125 12.2188V4.78125ZM0.53125 7.96875C0.390354 7.96875 0.255228 8.02472 0.1556 8.12435C0.0559708 8.22398 0 8.3591 0 8.5C0 8.6409 0.0559708 8.77602 0.1556 8.87565C0.255228 8.97528 0.390354 9.03125 0.53125 9.03125H2.125V7.96875H0.53125ZM14.875 7.96875H16.4688C16.6096 7.96875 16.7448 8.02472 16.8444 8.12435C16.944 8.22398 17 8.3591 17 8.5C17 8.6409 16.944 8.77602 16.8444 8.87565C16.7448 8.97528 16.6096 9.03125 16.4688 9.03125H14.875V7.96875ZM8.5 0C8.7975 0 9.03125 0.23375 9.03125 0.53125V2.125H7.96875V0.53125C7.96875 0.23375 8.2025 0 8.5 0ZM9.03125 14.875V16.4688C9.03125 16.6096 8.97528 16.7448 8.87565 16.8444C8.77602 16.944 8.6409 17 8.5 17C8.3591 17 8.22398 16.944 8.12435 16.8444C8.02472 16.7448 7.96875 16.6096 7.96875 16.4688V14.875H9.03125Z" fill="#3D71A8"/>
</g>
<defs>
<clipPath id="clip0">
<rect width="17" height="17" fill="white"/>
</clipPath>
</defs>
</svg>
