<svg width="17" height="17" viewBox="0 0 17 17" fill="none" xmlns="http://www.w3.org/2000/svg">
<path d="M1.57938 2.57938C1.79035 2.36848 2.07645 2.25 2.37476 2.25C2.67307 2.25 2.95917 2.36848 3.17013 2.57938L8.79513 8.20438C9.00604 8.41535 9.12452 8.70145 9.12452 8.99976C9.12452 9.29807 9.00604 9.58417 8.79513 9.79513L3.17013 15.4201C2.95796 15.6251 2.67378 15.7385 2.37881 15.7359C2.08384 15.7333 1.80167 15.615 1.59309 15.4064C1.3845 15.1978 1.26619 14.9157 1.26363 14.6207C1.26106 14.3257 1.37446 14.0416 1.57938 13.8294L6.40901 8.99976L1.57938 4.17013C1.36848 3.95917 1.25 3.67307 1.25 3.37476C1.25 3.07645 1.36848 2.79035 1.57938 2.57938V2.57938ZM8.32938 2.57938C8.54035 2.36848 8.82645 2.25 9.12476 2.25C9.42307 2.25 9.70917 2.36848 9.92013 2.57938L15.5451 8.20438C15.756 8.41535 15.8745 8.70145 15.8745 8.99976C15.8745 9.29807 15.756 9.58417 15.5451 9.79513L9.92013 15.4201C9.70796 15.6251 9.42378 15.7385 9.12881 15.7359C8.83384 15.7333 8.55167 15.615 8.34309 15.4064C8.1345 15.1978 8.01619 14.9157 8.01363 14.6207C8.01106 14.3257 8.12446 14.0416 8.32938 13.8294L13.159 8.99976L8.32938 4.17013C8.11848 3.95917 8 3.67307 8 3.37476C8 3.07645 8.11848 2.79035 8.32938 2.57938V2.57938Z" fill="#A371BA"/>
</svg>
