<svg width="138" height="34" viewBox="0 0 138 34" fill="none" xmlns="http://www.w3.org/2000/svg">
<path fill-rule="evenodd" clip-rule="evenodd" d="M33.2854 28.1409H35.8263V32.6793H27.8675V20.966C27.8675 17.3558 26.7665 15.9664 24.6081 15.9664C21.9825 15.9664 20.9252 18.0036 20.9252 20.9205V28.1879H23.4647V32.7248H15.4636V20.966C15.4636 17.3558 14.3626 15.9664 12.2042 15.9664C9.57994 15.9664 8.52123 18.0036 8.52123 20.9205V28.1879H12.1618V32.7248H0.5625V28.1879H3.10339V16.385H0.5625V11.8466H8.56358V14.9956C9.70698 12.7733 11.696 11.4309 14.3626 11.4309C17.1152 11.4309 19.6547 12.8659 20.5864 15.9223C21.6437 13.1435 23.8035 11.4309 26.8088 11.4309C30.2377 11.4309 33.3701 13.7001 33.3701 18.6528V28.1423H33.2854V28.1409ZM48.3135 28.558C45.3505 28.558 43.826 25.7806 43.826 22.1689C43.826 18.2342 45.5609 15.9664 48.3559 15.9664C50.9378 15.9664 53.0128 17.864 53.0128 22.0764C53.0128 26.1052 51.1495 28.558 48.3135 28.558ZM48.4406 11.4294C41.5829 11.4294 38.195 16.4761 38.195 22.5861C38.195 29.2527 42.2605 33.1875 48.1441 33.1875C54.2409 33.1875 58.6424 28.9751 58.6424 22.3085C58.6424 16.4761 55.2983 11.4294 48.4406 11.4294ZM75.7456 24.9478L80.0624 25.4105L78.878 32.7248H62.2406L61.6915 29.5773L72.1884 16.3835H66.22L65.373 19.6236L61.4374 19.1609L62.1136 11.8466H78.8357L79.2591 14.9941L68.6762 28.1879H74.8563L75.7442 24.9478H75.7456ZM84.0855 32.7248H89.7998V25.2254H84.0855V32.7248ZM84.0855 19.3445H89.7998V11.8466H84.0855V19.346V19.3445ZM106.944 0.875L98.6901 32.6778H93.3133L101.57 0.875H106.945H106.944ZM118.036 0.875L109.78 32.6778H104.403L112.66 0.875H118.035H118.036ZM125.359 28.8841C123.708 28.8841 123.116 27.8178 123.116 26.4753C123.116 24.2061 124.809 23.6054 126.756 23.6054C127.644 23.6054 128.619 23.7434 129.507 23.883C129.38 27.3551 127.307 28.8826 125.359 28.8826V28.8841ZM137.043 29.0207C136.783 29.1087 136.512 29.1557 136.239 29.1602C135.35 29.1602 134.927 28.7431 134.927 27.5402V18.5132C134.927 13.7442 131.455 11.4294 127.349 11.4294C124.217 11.4294 122.523 11.8466 119.178 13.3285L118.501 18.1416L122.861 18.6513L123.497 16.291C124.385 15.7813 125.275 15.6888 126.417 15.6888C129.507 15.6888 129.55 18.2342 129.55 20.3638V21.0586C128.51 20.9252 127.464 20.8634 126.417 20.8735C122.057 20.8735 117.528 22.0779 117.528 27.2156C117.528 31.5675 120.659 33.1875 123.412 33.1875C126.502 33.1875 128.45 31.1503 129.55 29.0207C129.804 31.5675 131.201 33.1875 133.741 33.1875C134.927 33.1875 136.155 32.8174 137.17 32.2152L137.043 29.0207Z" fill="black"/>
</svg>
