<svg width="32" height="32" viewBox="0 0 32 32" fill="none" xmlns="http://www.w3.org/2000/svg">
<path d="M31.359 14.615C31.315 14.326 31.271 14.156 31.271 14.156C31.271 14.156 31.158 14.287 30.971 14.534C30.9128 13.8457 30.7886 13.1645 30.6 12.5C30.3636 11.6689 30.0499 10.8617 29.663 10.089C29.4196 9.57638 29.1333 9.08529 28.807 8.62101C28.6897 8.44567 28.57 8.27567 28.448 8.11101C27.878 7.18001 27.224 6.61101 26.467 5.53501C25.974 4.70873 25.638 3.79843 25.476 2.85001C25.2684 3.4213 25.1091 4.00903 25 4.60701C24.223 3.82301 23.547 3.26601 23.139 2.88601C21.126 1.00601 21.36 0.0310059 21.36 0.0310059C21.36 0.0310059 17.6 4.22801 19.229 8.60001C19.791 10.0838 20.7618 11.3781 22.029 12.333C23.605 13.633 25.302 14.656 26.197 17.27C25.4767 15.8943 24.3882 14.7459 23.053 13.953C23.455 14.9018 23.6592 15.9226 23.653 16.953C23.6522 18.023 23.4105 19.079 22.9457 20.0428C22.4809 21.0065 21.8049 21.8532 20.9681 22.5199C20.1312 23.1866 19.1549 23.6563 18.1117 23.894C17.0685 24.1317 15.9851 24.1314 14.942 23.893C14.3281 23.778 13.7338 23.576 13.177 23.293C12.3472 22.7908 11.6278 22.1258 11.062 21.338L11.052 21.321L11.178 21.367C11.4718 21.4688 11.7726 21.5493 12.078 21.608C13.2864 21.864 14.5454 21.7154 15.661 21.185C16.787 20.56 17.469 20.097 18.022 20.28H18.032C18.572 20.452 18.998 19.928 18.612 19.38C18.2849 18.9513 17.8462 18.6208 17.3439 18.4247C16.8416 18.2286 16.295 18.1744 15.764 18.268C14.637 18.432 13.604 19.233 12.127 18.457C12.0319 18.4075 11.9395 18.353 11.85 18.294C11.75 18.237 12.167 18.381 12.07 18.316C11.7475 18.1544 11.4373 17.9693 11.142 17.762C11.12 17.744 11.365 17.832 11.342 17.814C10.959 17.5534 10.6303 17.2209 10.374 16.835C10.2433 16.5988 10.1693 16.3355 10.1578 16.0658C10.1464 15.7961 10.1978 15.5274 10.308 15.281C10.4455 15.036 10.6549 14.8391 10.908 14.717C11.099 14.811 11.217 14.882 11.217 14.882C11.217 14.882 11.13 14.722 11.083 14.638C11.1 14.632 11.115 14.638 11.132 14.627C11.299 14.699 11.669 14.887 11.864 15.002C11.9967 15.0757 12.1111 15.1782 12.199 15.302C12.199 15.302 12.266 15.269 12.216 15.129C12.1475 14.9552 12.0265 14.807 11.87 14.705H11.886C12.0353 14.781 12.1778 14.8697 12.312 14.97C12.4349 14.6864 12.4929 14.3789 12.482 14.07C12.4954 13.9003 12.4719 13.7297 12.413 13.57C12.36 13.47 12.443 13.43 12.536 13.535C12.52 13.4526 12.4935 13.3726 12.457 13.297V13.289C12.457 13.289 12.51 13.22 12.534 13.195C12.6001 13.1294 12.6724 13.0705 12.75 13.019C13.2169 12.7301 13.7069 12.4803 14.215 12.272C14.629 12.091 14.972 11.953 15.042 11.913C15.1455 11.846 15.2435 11.7707 15.335 11.688C15.6794 11.3951 15.9125 10.9925 15.995 10.548C16.004 10.489 16.0097 10.4296 16.012 10.37V10.32V10.29V10.278V10.265C15.952 10.04 15.564 9.87101 13.536 9.68101C13.1861 9.62517 12.8609 9.46576 12.6025 9.22335C12.344 8.98093 12.1641 8.66664 12.086 8.32101V8.33001C12.057 8.40401 12.031 8.47901 12.005 8.55501C12.031 8.48001 12.057 8.40501 12.086 8.33001V8.31401C12.4719 7.30344 13.1669 6.44045 14.072 5.84801C14.124 5.80601 13.864 5.85901 13.916 5.81601C14.0884 5.73153 14.2653 5.65675 14.446 5.59201C14.537 5.55401 14.056 5.37001 13.631 5.41501C13.3704 5.42904 13.1144 5.48931 12.875 5.59301C12.975 5.50701 13.275 5.39301 13.204 5.39301C12.6606 5.4982 12.1391 5.69537 11.662 5.97601C11.6611 5.92765 11.6713 5.87974 11.692 5.83601C11.312 5.99701 10.98 6.25325 10.728 6.58001C10.7353 6.5223 10.7386 6.46417 10.738 6.40601C10.5641 6.53569 10.4054 6.68464 10.265 6.85001L10.256 6.85701C9.13639 6.4231 7.91592 6.31899 6.739 6.55701L6.729 6.54801H6.741C6.49656 6.3496 6.28555 6.11327 6.116 5.84801L6.1 5.85201L6.081 5.83001C6.004 5.71601 5.925 5.58701 5.844 5.44301C5.786 5.34301 5.727 5.22601 5.668 5.10501C5.668 5.09701 5.659 5.09401 5.655 5.09301C5.631 5.09301 5.614 5.20401 5.594 5.17501V5.16901C5.38785 4.63124 5.29162 4.0576 5.311 3.48201L5.295 3.49001C4.96346 3.71721 4.71328 4.04448 4.581 4.42401C4.52 4.56101 4.481 4.63601 4.441 4.71101C4.441 4.71701 4.441 4.70101 4.441 4.67601C4.45 4.60701 4.48 4.46501 4.473 4.47601C4.466 4.48701 4.461 4.49501 4.454 4.50501C4.35456 4.6176 4.27019 4.74265 4.203 4.87701C4.14197 4.99973 4.09178 5.12755 4.053 5.25901C4.047 5.28001 4.053 5.24101 4.053 5.19501C4.053 5.14901 4.062 5.06701 4.053 5.08401L4.031 5.12701C3.5979 6.08732 3.32754 7.11298 3.231 8.16201C3.20466 8.34006 3.19429 8.52011 3.2 8.70001V8.71601C2.89039 9.05346 2.61659 9.4221 2.383 9.81601C1.60293 11.1336 1.02102 12.5589 0.655995 14.046C0.914888 13.4789 1.22448 12.9364 1.581 12.425C0.890593 14.1765 0.536086 16.0423 0.535995 17.925C0.653597 17.3736 0.803862 16.8296 0.985995 16.296C0.874708 18.5198 1.30288 20.7375 2.234 22.76C3.48247 25.564 5.55912 27.9187 8.185 29.508V29.508C9.25233 30.2307 10.4211 30.7908 11.653 31.17C11.815 31.229 11.979 31.287 12.147 31.343C12.094 31.322 12.047 31.299 11.994 31.276C13.4539 31.7139 14.9698 31.9369 16.494 31.938C21.888 31.938 23.669 29.884 23.833 29.679C24.0996 29.4383 24.316 29.1475 24.47 28.823V28.823C24.574 28.7803 24.679 28.7347 24.785 28.686L24.852 28.656L24.973 28.599C25.7859 28.2158 26.5503 27.7371 27.25 27.173C28.2996 26.4209 29.0512 25.3235 29.373 24.073C29.5641 23.6181 29.5745 23.1073 29.402 22.645C29.4573 22.5577 29.5143 22.4643 29.573 22.365C30.7312 20.5037 31.3882 18.3744 31.48 16.184V16.178C31.48 16.119 31.48 16.06 31.48 16.001C31.4814 15.5363 31.4409 15.0724 31.359 14.615V14.615Z" fill="white"/>
</svg>
