<svg width="138" height="34" viewBox="0 0 138 34" fill="none" xmlns="http://www.w3.org/2000/svg">
<path fill-rule="evenodd" clip-rule="evenodd" d="M32.7229 27.2659H35.2638V31.8043H27.305V20.091C27.305 16.4808 26.204 15.0914 24.0456 15.0914C21.42 15.0914 20.3627 17.1286 20.3627 20.0455V27.3129H22.9022V31.8498H14.9011V20.091C14.9011 16.4808 13.8001 15.0914 11.6417 15.0914C9.01744 15.0914 7.95873 17.1286 7.95873 20.0455V27.3129H11.5993V31.8498H0V27.3129H2.54089V15.51H0V10.9716H8.00108V14.1206C9.14448 11.8983 11.1335 10.5559 13.8001 10.5559C16.5527 10.5559 19.0922 11.9909 20.0239 15.0473C21.0812 12.2685 23.241 10.5559 26.2463 10.5559C29.6752 10.5559 32.8076 12.8251 32.8076 17.7778V27.2673H32.7229V27.2659ZM47.751 27.683C44.788 27.683 43.2635 24.9056 43.2635 21.2939C43.2635 17.3592 44.9984 15.0914 47.7934 15.0914C50.3753 15.0914 52.4503 16.989 52.4503 21.2014C52.4503 25.2302 50.587 27.683 47.751 27.683ZM47.8781 10.5544C41.0204 10.5544 37.6325 15.6011 37.6325 21.7111C37.6325 28.3777 41.698 32.3125 47.5816 32.3125C53.6784 32.3125 58.0799 28.1001 58.0799 21.4335C58.0799 15.6011 54.7358 10.5544 47.8781 10.5544ZM75.1831 24.0728L79.4999 24.5355L78.3155 31.8498H61.6781L61.129 28.7023L71.6259 15.5085H65.6575L64.8105 18.7486L60.8749 18.2859L61.5511 10.9716H78.2732L78.6966 14.1191L68.1137 27.3129H74.2938L75.1817 24.0728H75.1831ZM83.523 31.8498H89.2373V24.3504H83.523V31.8498ZM83.523 18.4695H89.2373V10.9716H83.523V18.471V18.4695ZM106.382 0L98.1276 31.8028H92.7508L101.007 0H106.382H106.382ZM117.474 0L109.217 31.8028H103.84L112.098 0H117.473H117.474ZM124.797 28.0091C123.146 28.0091 122.553 26.9428 122.553 25.6003C122.553 23.3311 124.246 22.7304 126.193 22.7304C127.081 22.7304 128.057 22.8684 128.945 23.008C128.818 26.4801 126.745 28.0076 124.797 28.0076V28.0091ZM136.48 28.1457C136.22 28.2337 135.949 28.2807 135.676 28.2852C134.787 28.2852 134.365 27.8681 134.365 26.6652V17.6382C134.365 12.8692 130.892 10.5544 126.786 10.5544C123.654 10.5544 121.961 10.9716 118.616 12.4535L117.938 17.2666L122.299 17.7763L122.935 15.416C123.823 14.9063 124.712 14.8138 125.854 14.8138C128.944 14.8138 128.988 17.3592 128.988 19.4888V20.1836C127.948 20.0502 126.901 19.9884 125.854 19.9985C121.494 19.9985 116.965 21.2029 116.965 26.3406C116.965 30.6925 120.097 32.3125 122.85 32.3125C125.94 32.3125 127.888 30.2753 128.988 28.1457C129.242 30.6925 130.638 32.3125 133.178 32.3125C134.364 32.3125 135.592 31.9424 136.607 31.3402L136.48 28.1457Z" fill="white"/>
<path d="M97.8015 31.118C97.7926 31.151 97.7814 31.1789 97.768 31.2015L97.6463 31.1689C97.6593 31.1455 97.6686 31.1233 97.6742 31.1026C97.6827 31.0705 97.6788 31.0449 97.6624 31.0256C97.6463 31.0065 97.617 30.9912 97.5746 30.9799L96.9284 30.8067L96.9676 30.6605L97.6128 30.8334C97.6933 30.855 97.7497 30.8898 97.782 30.9379C97.8143 30.986 97.8208 31.046 97.8015 31.118ZM97.8168 30.2496L97.6392 30.2556L97.5719 30.507L97.7226 30.601L97.6804 30.7585L97.0533 30.3296L97.1012 30.1509L97.859 30.0921L97.8168 30.2496ZM97.5073 30.2577C97.3462 30.264 97.2551 30.2676 97.234 30.2683C97.213 30.2688 97.1964 30.2687 97.1845 30.2682C97.2219 30.2894 97.3135 30.3458 97.4591 30.4374L97.5073 30.2577ZM97.5381 29.7559L97.5507 29.7087C97.5631 29.6625 97.5646 29.6263 97.555 29.6002C97.5455 29.574 97.5243 29.5565 97.4913 29.5477C97.4586 29.5389 97.4323 29.544 97.4124 29.5629C97.3925 29.5816 97.3763 29.6144 97.3637 29.6616L97.3518 29.7059L97.5381 29.7559ZM97.657 29.7877L97.9215 29.8586L97.8824 30.0048L97.1928 29.8201L97.2467 29.6191C97.2718 29.5254 97.3075 29.4607 97.3538 29.4249C97.3998 29.3891 97.4576 29.3804 97.527 29.399C97.5676 29.4099 97.6008 29.4308 97.6265 29.4616C97.652 29.4923 97.6682 29.5306 97.6752 29.5762C97.858 29.514 97.9763 29.4732 98.03 29.4539L97.9865 29.6162L97.6778 29.7099L97.657 29.7877ZM98.0532 29.3672L97.3637 29.1824L97.4029 29.0362L98.0924 29.2209L98.0532 29.3672ZM98.1389 29.0474L97.4494 28.8626L97.4885 28.7164L98.0573 28.8688L98.1323 28.5891L98.253 28.6215L98.1389 29.0474ZM97.7683 27.6722L97.8079 27.5246L98.4346 27.9437L98.3919 28.1032L97.6397 28.1523L97.6792 28.0047L98.1243 27.9849C98.1505 27.9842 98.1808 27.9844 98.2152 27.9855C98.2493 27.9863 98.273 27.9874 98.2861 27.9888C98.2581 27.9776 98.2106 27.9523 98.1437 27.9128L97.7683 27.6722ZM98.6339 27.2L98.4564 27.206L98.389 27.4574L98.5398 27.5513L98.4976 27.7089L97.8704 27.28L97.9183 27.1012L98.6761 27.0424L98.6339 27.2ZM98.3244 27.208C98.1633 27.2144 98.0722 27.2179 98.0511 27.2187C98.0301 27.2191 98.0136 27.2191 98.0016 27.2186C98.0391 27.2397 98.1306 27.2961 98.2763 27.3877L98.3244 27.208ZM98.6995 26.9552L98.01 26.7704L98.0492 26.6242L98.618 26.7766L98.6929 26.4969L98.8136 26.5293L98.6995 26.9552ZM98.9523 26.0119L98.8459 26.409L98.1563 26.2242L98.2627 25.8271L98.3825 25.8592L98.3153 26.1101L98.4667 26.1507L98.5292 25.9172L98.649 25.9493L98.5865 26.1828L98.7643 26.2304L98.8315 25.9795L98.9523 26.0119ZM99.1549 25.2558L99.1051 25.4417L98.503 25.6019L98.5019 25.6061C98.5956 25.6248 98.6622 25.6394 98.7015 25.65L99.0259 25.7369L98.9909 25.8676L98.3014 25.6828L98.3508 25.4984L98.9475 25.3373L98.9484 25.334C98.8575 25.3147 98.7935 25.3001 98.7564 25.2901L98.43 25.2027L98.4653 25.0711L99.1549 25.2558ZM98.7022 24.6341C98.6875 24.6891 98.6968 24.7373 98.7302 24.7786C98.7633 24.8198 98.8168 24.8503 98.8907 24.8701C99.0445 24.9113 99.1368 24.8742 99.1677 24.7588C99.1807 24.7104 99.1843 24.6485 99.1785 24.5732L99.3012 24.606C99.3096 24.669 99.3044 24.7353 99.2857 24.8051C99.2589 24.9054 99.208 24.974 99.133 25.0109C99.0578 25.0477 98.9633 25.0508 98.8494 25.0203C98.7778 25.0011 98.7185 24.9713 98.6717 24.9308C98.6247 24.8902 98.5933 24.8417 98.5778 24.7853C98.562 24.7285 98.5629 24.6672 98.5805 24.6015C98.5985 24.5345 98.6327 24.4716 98.6832 24.4126L98.7894 24.4917C98.7702 24.5142 98.7526 24.5372 98.7365 24.5609C98.7204 24.5845 98.7089 24.6089 98.7022 24.6341ZM99.3665 24.4658L98.677 24.2811L98.7162 24.1349L99.4057 24.3196L99.3665 24.4658ZM99.5653 23.7239L99.3878 23.73L99.3204 23.9813L99.4712 24.0753L99.429 24.2328L98.8018 23.804L98.8497 23.6252L99.6075 23.5664L99.5653 23.7239ZM99.2558 23.732C99.0947 23.7384 99.0036 23.7419 98.9825 23.7427C98.9615 23.7431 98.945 23.7431 98.933 23.7426C98.9705 23.7637 99.062 23.8201 99.2077 23.9117L99.2558 23.732ZM99.7948 22.8674L99.745 23.0533L99.143 23.2135L99.1419 23.2177C99.2356 23.2364 99.3021 23.251 99.3414 23.2616L99.6659 23.3485L99.6309 23.4792L98.9414 23.2944L98.9908 23.11L99.5875 22.9489L99.5884 22.9456C99.4975 22.9263 99.4335 22.9117 99.3964 22.9017L99.07 22.8143L99.1053 22.6827L99.7948 22.8674ZM99.6634 21.9749C99.7776 22.0055 99.8577 22.0573 99.9039 22.1303C99.95 22.2033 99.9589 22.2927 99.9306 22.3983C99.9023 22.504 99.8499 22.5769 99.7734 22.617C99.697 22.6572 99.6013 22.6619 99.4866 22.6312C99.3718 22.6004 99.2918 22.5487 99.2466 22.4759C99.2012 22.4027 99.1927 22.3131 99.2211 22.2072C99.2495 22.1012 99.3016 22.0284 99.3776 21.9888C99.4537 21.9489 99.549 21.9442 99.6634 21.9749ZM99.5286 22.4781C99.6056 22.4988 99.6676 22.4997 99.7144 22.4809C99.7612 22.4621 99.7924 22.4236 99.808 22.3655C99.8393 22.2488 99.7774 22.1697 99.6224 22.1282C99.467 22.0866 99.3738 22.1238 99.3427 22.2398C99.3272 22.298 99.3351 22.3471 99.3664 22.3872C99.3975 22.4272 99.4516 22.4575 99.5286 22.4781Z" fill="#FAFAFA"/>
</svg>
