<svg width="2224" height="1360" viewBox="0 0 2224 1360" fill="none" xmlns="http://www.w3.org/2000/svg">
<mask id="mask0" mask-type="alpha" maskUnits="userSpaceOnUse" x="0" y="0" width="2224" height="1360">
<path d="M2224 1360L0 832V0H2224V1360Z" fill="#C4C4C4"/>
</mask>
<g mask="url(#mask0)">
<path opacity="0.63" d="M470.525 90.3758C290.628 30.2268 -171.603 -99.0419 -473.618 424.641L-322.973 4473.05L2243.53 4704.55L2336.98 273.925C2286.62 235.255 1952.68 71.5308 1515.03 90.3758C1259.55 101.377 1103.68 198.117 883.026 188.549C644.027 178.185 564.064 121.651 470.525 90.3758Z" fill="url(#paint0_linear)"/>
<path opacity="0.63" d="M890.034 68.0183C709.394 1.8523 245.48 -141.03 -52.1462 418.182L-18.0451 4473.62L2356.24 4495.02L2760.23 281.816C2709.46 239.868 2373.67 61.1705 1935.7 77.443C1680.03 86.9421 1524.86 189.343 1303.88 177.084C1064.52 163.807 983.96 102.422 890.034 68.0183Z" fill="url(#paint1_linear)"/>
</g>
<defs>
<linearGradient id="paint0_linear" x1="903.601" y1="639.427" x2="856.565" y2="-365.387" gradientUnits="userSpaceOnUse">
<stop stop-color="#0165E4"/>
<stop offset="1" stop-color="#08EEFE"/>
</linearGradient>
<linearGradient id="paint1_linear" x1="1251.76" y1="639.082" x2="1201.8" y2="-395.554" gradientUnits="userSpaceOnUse">
<stop stop-color="#0165E4"/>
<stop offset="1" stop-color="#08EEFE"/>
</linearGradient>
</defs>
</svg>
